<svg width="750" height="538" viewBox="0 0 750 538" fill="none" xmlns="http://www.w3.org/2000/svg">
<path d="M741.975 203.175C726.65 193.075 707.825 187.05 687.6 187.05C685.275 187.05 682.975 187.125 680.7 187.275L681 187.25C669.85 187.275 658.95 188.275 648.35 190.125L649.5 189.95C643.625 156.025 623.875 127.575 596.45 110.175L595.975 109.9L585.25 103.7L578.2 113.9C569.8 126.7 563.225 141.6 559.3 157.525L559.1 158.5C556.875 166.6 555.6 175.9 555.6 185.5C555.6 206.275 561.6 225.625 571.95 241.95L571.7 241.525C555.775 249 537.175 253.725 517.6 254.625H517.275H24.05C11.15 254.65 0.700001 265.075 0.650001 277.95C0.625001 279.35 0.625 281.025 0.625 282.7C0.625 326.475 8.55 368.4 23.05 407.125L22.25 404.675C36.2 445.5 62.55 479.05 96.75 501.7L97.45 502.125C141.05 524.7 192.65 537.925 247.325 537.925C252.5 537.925 257.625 537.8 262.75 537.575L262.025 537.6C262.475 537.6 263 537.6 263.525 537.6C295.325 537.6 326.4 534.575 356.525 528.8L353.45 529.3C398.325 520.9 438.325 505.825 474.575 484.975L472.725 485.95C504.15 467.575 531 445.425 553.85 419.65L554.15 419.3C587.275 380.3 614.225 334.775 632.775 285.175L633.8 282.05H640.7C642.075 282.1 643.675 282.15 645.275 282.15C675.925 282.15 703.775 270.125 724.35 250.525L724.3 250.575C733.725 241.625 741.2 230.75 746.125 218.55L746.35 217.95L749.4 208.975L741.975 203.175ZM69.75 240.225H135.9C139.075 240.2 141.65 237.625 141.65 234.45V175.575C141.65 172.4 139.075 169.8 135.9 169.775H69.75C66.575 169.8 64 172.375 64 175.55V234.45C64 237.625 66.575 240.225 69.75 240.225ZM160.85 240.225H226.95C230.125 240.225 232.725 237.65 232.725 234.45V175.575C232.725 172.4 230.15 169.8 226.975 169.775H160.825C157.625 169.775 155.025 172.375 155.025 175.575V234.45C155.05 237.65 157.65 240.225 160.85 240.225ZM253.3 240.225H319.45C322.625 240.2 325.2 237.625 325.2 234.45V175.575C325.2 172.4 322.625 169.8 319.45 169.775H253.3C250.125 169.8 247.55 172.375 247.55 175.55V234.45C247.55 237.625 250.125 240.225 253.325 240.225H253.3ZM344.7 240.225H410.775C413.975 240.225 416.55 237.65 416.575 234.45V175.575C416.575 172.375 413.975 169.775 410.775 169.775H344.7C341.525 169.775 338.925 172.35 338.925 175.55V234.45C338.925 237.625 341.5 240.225 344.675 240.225C344.675 240.225 344.675 240.225 344.7 240.225ZM160.85 155.525H226.95C230.15 155.5 232.725 152.925 232.725 149.725V90.85C232.725 87.675 230.15 85.075 226.95 85.075H160.85C157.65 85.075 155.075 87.65 155.05 90.85V149.725C155.075 152.925 157.65 155.5 160.85 155.525ZM253.3 155.525H319.45C322.625 155.5 325.2 152.9 325.2 149.725V90.85C325.2 87.675 322.625 85.075 319.425 85.075H253.35C250.175 85.075 247.575 87.65 247.575 90.85V149.725C247.6 152.925 250.15 155.5 253.35 155.525H253.3ZM344.7 155.525H410.775C413.975 155.5 416.55 152.925 416.575 149.725V90.85C416.55 87.65 413.975 85.075 410.775 85.075H344.7C341.525 85.075 338.925 87.65 338.925 90.85V149.725C338.925 152.925 341.5 155.5 344.7 155.525ZM344.7 70.825H410.775C413.975 70.825 416.575 68.225 416.575 65.025V6.12497C416.55 2.92497 413.975 0.349976 410.775 0.349976H344.7C341.525 0.349976 338.925 2.92497 338.925 6.12497V65.025C338.925 68.2 341.5 70.8 344.675 70.8C344.675 70.8 344.675 70.8 344.7 70.8V70.825ZM436.875 240.225H502.975C506.175 240.225 508.75 237.65 508.775 234.45V175.575C508.775 172.375 506.175 169.775 502.975 169.775H436.875C433.675 169.775 431.1 172.35 431.1 175.55V234.45C431.1 237.625 433.675 240.225 436.875 240.225Z" fill="white"/>
</svg>
