<svg width="800" height="800" viewBox="0 0 800 800" fill="none" xmlns="http://www.w3.org/2000/svg">
<g clip-path="url(#clip0_1555_79)">
<path d="M774.833 216.333L800 151.1L798.967 147.067L549.867 212.633C576.433 174.2 567.3 143.367 567.3 143.367C567.3 143.367 487.733 194.167 427.533 192.867C367.4 191.533 347.967 175.533 255.7 204.933C163.433 234.333 137.333 324.6 110.667 344.033C83.8667 363.467 0 426.6 0 426.6L0.2 427.733L75.8667 403.6C75.8667 403.6 55.1333 423.1 11.0333 482.6L8.96667 480.7L9.03333 481.067C9.03333 481.067 44.5 535.267 79.2667 525.2C83.3272 523.921 87.2652 522.281 91.0333 520.3C105 528.1 123.267 535.733 143.433 537.8C143.433 537.8 129.767 521.967 118.367 503.9L126.3 498.767L155.133 509.367L151.933 482.3C152.033 482.2 152.133 482.2 152.2 482.1L180.5 492.467L177 467.867C180.521 465.998 184.101 464.242 187.733 462.6L217.233 351.1L339.3 267.867L329.6 292.3C304.9 353.167 258.433 367.5 258.433 367.5L239.033 374.833C224.6 391.9 218.567 396.067 213.567 453.267C225.167 450.333 236.3 449.7 246.367 452.333C298.5 466.367 316.6 529.233 302.533 546.567C299.067 550.9 290.667 558.367 280.1 567.133H259L258.733 584.267L256.567 585.967H235.067L234.767 602.767L229.1 607C208.867 607.367 183.333 589.733 183.333 589.733C183.333 605.767 196.7 630.567 196.7 630.567L199.033 629.433L197 630.933C197 630.933 251.167 667.033 285.2 653.633C315.533 641.767 393.967 579.867 461.733 550.533L666.733 496.533L693.767 426.533L537.5 467.7V404.733L720.833 356.467L747.867 286.467L537.533 341.867V278.9L774.833 216.333ZM402.733 349.667L451.367 336.867L452.033 339.333L436.867 378.633L386.433 391.9L402.733 349.667ZM419.5 433.867L369.1 447.133L385.4 404.933L434.033 392.1L434.7 394.567L419.5 433.867ZM485.2 419.733L434.767 433L451.1 390.8L499.733 377.967L500.4 380.4L485.2 419.733Z" fill="white"/>
</g>
<defs>
<clipPath id="clip0_1555_79">
<rect width="800" height="800" fill="white"/>
</clipPath>
</defs>
</svg>
