<svg width="544" height="750" viewBox="0 0 544 750" fill="none" xmlns="http://www.w3.org/2000/svg">
<path d="M343.85 223.375L287 114.6C284.1 109.175 278.475 105.525 272 105.525C265.525 105.525 259.9 109.15 257.05 114.5L257 114.6L7.37505 561.95L343.85 223.375ZM543.3 605.05L473 167.675C471.7 159.55 464.725 153.4 456.325 153.4C451.6 153.4 447.35 155.325 444.275 158.45L0.675049 605.075L246.1 743.375C253.25 747.45 261.8 749.875 270.9 749.875C280 749.875 288.575 747.475 295.95 743.25L295.7 743.375L543.3 605.05ZM18.625 489.725L92.5 14.525C93.775 6.32498 100.775 0.0999756 109.25 0.0999756C115.7 0.0999756 121.325 3.69998 124.175 9.02498L124.225 9.12498L203.675 158.175L18.625 489.725Z" fill="white"/>
</svg>
