<svg width="500" height="500" viewBox="0 0 500 500" fill="none" xmlns="http://www.w3.org/2000/svg">
<path d="M236.434 3.19268C244.816 -1.06423 255.182 -1.06423 263.565 3.19268L486.643 116.474C494.913 120.674 500 128.383 500 136.719V363.281C500 371.618 494.913 379.324 486.643 383.524L263.565 496.805C255.182 501.065 244.816 501.065 236.434 496.805L180.665 468.487C167.821 461.965 163.483 447.612 170.975 436.431C178.467 425.253 194.952 421.474 207.796 427.996L250 449.427L446.154 349.818V150.18L250 50.5712L53.846 150.18V349.818L93.9362 370.178C106.291 373.628 121.552 374.471 132.309 370.334C137.299 368.415 141.806 365.29 145.373 359.709C149.127 353.834 152.564 344.056 152.564 328.125V164.062C152.564 151.118 164.618 140.625 179.487 140.625C194.356 140.625 206.41 151.118 206.41 164.062V328.125C206.41 349.693 201.78 367.862 192.427 382.496C182.887 397.424 169.244 407.374 154.069 413.212C125.125 424.343 93.1619 419.781 73.5892 413.659C72.041 413.174 70.5473 412.568 69.1265 411.846L13.3574 383.524C5.08594 379.324 0 371.618 0 363.281V136.719C0 128.383 5.08594 120.674 13.3574 116.474L236.434 3.19268ZM260.132 165.101C274.378 150.338 296.626 140.625 326.817 140.625C354.835 140.625 376.176 148.986 390.617 162.285C400.83 171.693 400.352 186.526 389.544 195.418C378.739 204.31 361.698 203.892 351.485 194.485C348.341 191.589 341.75 187.5 326.817 187.5C310.936 187.5 304.392 192.11 301.362 195.25C297.451 199.304 296.153 204.432 296.153 207.031C296.153 209.63 297.451 214.758 301.362 218.812C304.392 221.952 310.936 226.562 326.817 226.562C329.473 226.562 332.04 226.897 334.466 227.522C356.705 230.312 373.652 238.995 385.272 251.038C398.637 264.888 403.099 281.244 403.099 292.968C403.099 304.692 398.637 321.05 385.272 334.899C371.028 349.662 348.779 359.374 318.589 359.374C290.571 359.374 269.229 351.012 254.788 337.715C244.574 328.306 245.054 313.471 255.86 304.581C266.666 295.69 283.706 296.108 293.92 305.515C297.064 308.41 303.656 312.5 318.589 312.5C334.47 312.5 341.014 307.889 344.044 304.749C347.953 300.695 349.253 295.567 349.253 292.968C349.253 290.37 347.953 285.241 344.044 281.188C341.014 278.047 334.47 273.437 318.589 273.437C315.932 273.437 313.363 273.102 310.939 272.477C288.7 269.687 271.753 261.005 260.132 248.961C246.768 235.111 242.307 218.755 242.307 207.031C242.307 195.307 246.768 178.951 260.132 165.101Z" fill="white"/>
</svg>
