<svg width="662" height="798" viewBox="0 0 662 798" fill="none" xmlns="http://www.w3.org/2000/svg">
<path d="M656.969 607.79L382.615 25.161C375.67 10.5532 361.276 0.928758 345.123 0.0928633C328.932 -0.99191 313.483 7.01747 305.038 20.8733L7.47085 502.831C-1.76697 517.688 -1.57261 536.549 7.96942 551.213L153.452 776.507C164.756 793.875 186.138 801.738 206.002 795.831L628.191 670.949C641.053 667.189 651.652 658.037 657.248 645.861C662.767 633.744 662.672 619.811 656.988 607.77L656.969 607.79ZM595.545 632.779L237.292 738.715C226.363 741.966 215.873 732.493 218.147 721.464L346.14 108.602C348.533 97.1346 364.367 95.3198 369.373 105.929L606.314 609.087C608.434 613.624 608.459 618.863 606.384 623.421C604.308 627.979 600.339 631.399 595.525 632.779H595.545Z" fill="white"/>
</svg>
