<svg width="800" height="800" viewBox="0 0 800 800" fill="none" xmlns="http://www.w3.org/2000/svg">
<path d="M471.17 399.23C471.17 438.667 439.2 470.637 399.763 470.637C360.326 470.637 328.355 438.667 328.355 399.23C328.355 359.793 360.326 327.822 399.763 327.822C439.2 327.822 471.17 359.793 471.17 399.23Z" fill="white"/>
<path d="M399.734 562.785C393.778 562.933 386.756 563.022 379.704 563.022C296.415 563.022 216.089 550.43 140.504 527.052L146.222 528.563C106.193 515.644 71.4964 496.593 41.3038 472.178L41.9261 472.652C18.5483 455.733 2.81495 429.541 0.148282 399.556L0.118652 399.17C0.118652 351.941 51.8816 305.719 138.815 275.556C213.245 251.052 298.904 236.919 387.852 236.919C391.971 236.919 396.089 236.948 400.208 237.007H399.585C403.022 236.948 407.052 236.919 411.111 236.919C498.963 236.919 583.556 250.815 662.845 276.533L657.067 274.904C695.734 287.467 729.304 305.6 758.785 328.652L758.074 328.119C781.037 344.296 796.534 369.719 799.141 398.844L799.171 399.23C799.171 448.296 741.274 497.956 647.971 528.83C577.956 550.43 497.452 562.874 414.045 562.874C409.008 562.874 404 562.815 398.993 562.726H399.734V562.785ZM399.734 271.23C396.593 271.17 392.859 271.17 389.126 271.17C303.763 271.17 221.541 284.563 144.415 309.363L150.074 307.793C70.1335 335.674 34.2816 373.807 34.2816 399.259C34.2816 425.719 72.8298 467.407 157.333 496.267C223.971 516.919 300.563 528.83 379.941 528.83C386.904 528.83 393.837 528.741 400.741 528.563L399.734 528.593C404.059 528.681 409.156 528.741 414.252 528.741C493.778 528.741 570.519 516.889 642.845 494.874L637.304 496.326C725.008 467.17 765.304 425.481 765.304 399.141C762.282 380.237 751.615 364.296 736.682 354.252L736.445 354.104C710.785 334.133 680.859 318.044 648.445 307.467L646.371 306.874C576.208 284.178 495.467 271.081 411.704 271.081C407.496 271.081 403.319 271.111 399.141 271.17H399.763L399.734 271.23Z" fill="white"/>
<path d="M237.718 755.141C237.244 755.141 236.681 755.17 236.148 755.17C222.726 755.17 210.133 751.644 199.259 745.481L199.644 745.689C158.815 721.985 144.592 654.074 161.718 563.733C182.37 471.052 215.852 389.096 260.8 314.844L258.755 318.519C303.17 239.852 356.83 172.563 419.496 114.904L420.089 114.37C447.437 89.363 479.437 68.8297 514.518 54.2815L516.681 53.4815C528.741 47.6741 542.904 44.2963 557.867 44.2963C572.711 44.2963 586.785 47.6445 599.348 53.6L598.755 53.363C641.274 77.8371 655.378 152.919 635.437 249.096C614.104 337.007 581.57 414.43 538.785 484.919L540.859 481.274C497.837 559.2 445.778 625.926 384.83 683.319L384.415 683.704C356.03 709.689 322.696 730.815 286.015 745.393L283.822 746.163C270.192 751.526 254.43 754.815 237.926 755.2H237.748L237.718 755.141ZM273.422 327.081L288.207 335.615C247.289 403.17 215.17 481.57 196.178 564.948L195.17 570.281C179.378 653.511 194.607 703.556 216.504 716.237C222.163 719.259 228.859 721.007 235.97 721.007C236.563 721.007 237.185 721.007 237.778 720.978H237.689C265.985 720.978 310.518 703.052 362.015 658.104C420.563 602.785 470.281 538.904 509.333 468.356L511.348 464.356C550.4 400.474 581.6 326.489 600.978 247.852L602.104 242.459C620.741 151.852 604.652 96.3852 581.778 83.1111C574.726 80.326 566.548 78.726 558.015 78.726C547.23 78.726 537.037 81.3037 528.029 85.8371L528.415 85.6593C495.289 99.4371 466.844 117.837 442.281 140.356L442.489 140.178C382.015 195.911 330.726 260.385 290.311 331.822L288.267 335.733L273.422 327.081Z" fill="white"/>
<path d="M561.778 755.556C523.082 755.556 474.074 732.237 422.815 688.119C358.37 629.363 303.793 561.244 260.919 485.63L258.785 481.57C216.415 411.97 183.2 331.2 163.526 245.274L162.459 239.793C157.659 218.785 154.904 194.696 154.904 169.956C154.904 154.341 156 139.022 158.104 124L157.896 125.718C160.415 96.1481 175.911 70.6666 198.548 54.637L198.845 54.4296C241.215 29.837 313.363 55.1407 386.756 120.444C446.667 177.156 497.807 242.311 538.4 314.222L540.533 318.311C582.845 386.37 616.296 465.304 636.593 549.363L637.719 554.874C642.548 575.881 645.333 600.03 645.333 624.8C645.333 641.896 644.03 658.667 641.482 675.052L641.719 673.215C638.667 703.496 622.637 729.541 599.378 745.985L599.052 746.193C588.741 752.089 576.415 755.556 563.289 755.556C562.756 755.556 562.222 755.556 561.689 755.526L561.778 755.556ZM288.356 464.504C331.556 540.681 383.674 605.867 444.533 661.719L445.126 662.252C509.304 717.452 560.207 729.393 582.252 716.593C605.156 703.378 621.926 649.156 604.593 561.541C583.793 475.911 551.645 400.533 509.215 332.178L511.141 335.496C470.282 262.726 421.452 200.326 364.533 146.341L364.178 146.015C295.022 84.5629 238.993 70.7555 216.089 83.9703C202.074 95.3778 192.859 112.178 191.645 131.17V131.378C190.015 142.933 189.096 156.267 189.096 169.837C189.096 192.267 191.645 214.074 196.445 235.052L196.059 233.096C216 320.563 247.822 397.807 290.341 467.881L288.385 464.415L288.356 464.504Z" fill="white"/>
</svg>
