<svg width="640" height="800" viewBox="0 0 640 800" fill="none" xmlns="http://www.w3.org/2000/svg">
<path d="M0 0V800H560V760H520H40V40H360V160V200H520V480H560V200V160L400 0H360H0ZM400 54.1406L505.859 160H400V54.1406ZM140 520C106.863 520 80 546.863 80 580C80 613.137 106.863 640 140 640H180C191.046 640 200 648.954 200 660C200 671.046 191.046 680 180 680H80V720H180C213.137 720 240 693.137 240 660C240 626.863 213.137 600 180 600H140C128.954 600 120 591.046 120 580C120 568.954 128.954 560 140 560H240V520H140ZM360 520L352.656 520.312L345.312 521.328L338.125 523.047L331.094 525.391L324.297 528.359L317.891 531.953L311.797 536.172L306.094 540.859L300.859 546.094L296.172 551.797L292.031 557.891L288.359 564.297L285.391 571.094L283.047 578.047L281.406 585.312L280.312 592.656L280 600V640L280.312 647.344L281.406 654.688L283.047 661.875L285.391 668.906L288.359 675.625L292.031 682.109L296.172 688.203L300.859 693.906L306.094 699.141L311.797 703.828L317.891 707.969L324.297 711.641L331.094 714.609L338.125 716.953L345.312 718.594L352.656 719.688L360 720L367.344 719.688L374.688 718.594L381.875 716.953L388.906 714.609L395.703 711.641L400.547 708.828L405.859 714.141C409.61 717.891 414.696 719.999 420 720H440V680H429.141L431.641 675.625L434.609 668.906L436.953 661.875L438.594 654.688L439.688 647.344L440 640V600L439.688 592.656L438.594 585.312L436.953 578.047L434.609 571.094L431.641 564.297L427.969 557.891L423.828 551.797L419.141 546.094L413.906 540.859L408.203 536.172L402.109 531.953L395.703 528.359L388.906 525.391L381.875 523.047L374.688 521.328L367.344 520.312L360 520ZM480 520V720H640V680H520V520H480ZM360 560L365.234 560.312L370.391 561.328L375.312 563.047L380 565.391L384.375 568.281L388.281 571.719L391.719 575.625L394.609 580L396.953 584.688L398.672 589.609L399.688 594.766L400 600V640L399.688 645.234L398.672 650.312L374.141 625.859L345.859 654.141L370.312 678.594L365.234 679.688L360 680L354.766 679.688L349.609 678.594L344.688 676.953L340 674.609L335.625 671.719L331.719 668.281L328.281 664.297L325.391 660L323.047 655.312L321.328 650.312L320.312 645.234L320 640V600L320.312 594.766L321.328 589.609L323.047 584.688L325.391 580L328.281 575.625L331.719 571.719L335.625 568.281L340 565.391L344.688 563.047L349.609 561.328L354.766 560.312L360 560Z" fill="white"/>
</svg>
